<?xml version="1.0" encoding="UTF-8" standalone="no"?>
<!-- Generator: Adobe Illustrator 23.0.1, SVG Export Plug-In . SVG Version: 6.00 Build 0)  -->

<svg
   xmlns:dc="http://purl.org/dc/elements/1.1/"
   xmlns:cc="http://creativecommons.org/ns#"
   xmlns:rdf="http://www.w3.org/1999/02/22-rdf-syntax-ns#"
   xmlns:svg="http://www.w3.org/2000/svg"
   xmlns="http://www.w3.org/2000/svg"
   xmlns:sodipodi="http://sodipodi.sourceforge.net/DTD/sodipodi-0.dtd"
   xmlns:inkscape="http://www.inkscape.org/namespaces/inkscape"
   version="1.1"
   id="Layer_1"
   x="0px"
   y="0px"
   viewBox="0 0 340 340"
   style="enable-background:new 0 0 340 340;"
   xml:space="preserve"
   sodipodi:docname="services-television-icon.svg"
   inkscape:version="0.92.3 (2405546, 2018-03-11)"><metadata
   id="metadata35"><rdf:RDF><cc:Work
       rdf:about=""><dc:format>image/svg+xml</dc:format><dc:type
         rdf:resource="http://purl.org/dc/dcmitype/StillImage" /><dc:title></dc:title></cc:Work></rdf:RDF></metadata><defs
   id="defs33" /><sodipodi:namedview
   pagecolor="#ffffff"
   bordercolor="#666666"
   borderopacity="1"
   objecttolerance="10"
   gridtolerance="10"
   guidetolerance="10"
   inkscape:pageopacity="0"
   inkscape:pageshadow="2"
   inkscape:window-width="741"
   inkscape:window-height="480"
   id="namedview31"
   showgrid="false"
   inkscape:zoom="0.69411765"
   inkscape:cx="-9.3644068"
   inkscape:cy="170"
   inkscape:window-x="0"
   inkscape:window-y="0"
   inkscape:window-maximized="0"
   inkscape:current-layer="Layer_1" />
<style
   type="text/css"
   id="style2">

svg {
  height: 330px;
}

  @-webkit-keyframes bh-animate-in {
      from {
          -webkit-transform: scale(0);
      }
      to {
          -webkit-transform: scale(1);
      }
  }

@keyframes bh-animate-in {
      from {
          -webkit-transform: scale(0);
      }
      to {
          -webkit-transform: scale(1);
      }
}

  .bh-animate-in, .st2, .st0, .st1 {
      animation: bh-animate-in 0.25s ease forwards;
      transform-origin: center;
  }

  .bh-animate-in {
    animation-delay: 0.25s;
    transform: scale(0);
  }

  .st1 {
    animation-delay: 0.12s;
    transform: scale(0);
  }

	.st0{fill:url(#SVGID_1_);}
	.st1{fill:url(#SVGID_2_);}
	.st2{fill:url(#SVGID_3_);}
</style>
<g
   id="XMLID_7_" class="bh-animate-in">
	<g
   id="XMLID_8_">
		<g
   id="XMLID_9_">
			
				<linearGradient
   id="SVGID_1_"
   gradientUnits="userSpaceOnUse"
   x1="103.8375"
   y1="127.035"
   x2="198.4325"
   y2="127.035"
   gradientTransform="matrix(1 0 0 -1 0 342)">
				<stop
   offset="0"
   style="stop-color:#FFF21F"
   id="stop4" />
				<stop
   offset="1"
   style="stop-color:#FFD21B"
   id="stop6" />
			</linearGradient>
			<path
   class="st0"
   d="M193.24,254.79c-28.24,3.17-55.97,3.17-84.21,0c-1.46-0.16-2.62-1.27-2.8-2.67     c-3.19-24.89-3.19-49.43,0-74.31c0.18-1.4,1.34-2.51,2.8-2.67c28.24-3.17,55.97-3.17,84.21,0c1.46,0.16,2.62,1.27,2.8,2.67     c3.19,24.88,3.19,49.42,0,74.31C195.86,253.52,194.7,254.62,193.24,254.79z"
   id="path9" />
		</g>
	</g>
</g>
<linearGradient
   id="SVGID_2_"
   gradientUnits="userSpaceOnUse"
   x1="107.6367"
   y1="195.4875"
   x2="240.1474"
   y2="62.9767"
   gradientTransform="matrix(1 0 0 -1 0 342)">
	<stop
   offset="0"
   style="stop-color:#58595B"
   id="stop14" />
	<stop
   offset="1"
   style="stop-color:#404041"
   id="stop16" />
</linearGradient>
<path
   class="st1"
   d="M230.02,170.27c4.95,0,8.9,3.99,8.83,8.93c-0.07,4.93-4.15,8.92-9.09,8.92c-4.95,0-8.9-3.99-8.83-8.92  C221,174.27,225.07,170.27,230.02,170.27z M220.53,205.97c-0.07,4.93,3.88,8.92,8.83,8.92s9.02-3.99,9.09-8.92  c0.07-4.93-3.88-8.93-8.83-8.93C224.68,197.04,220.61,201.03,220.53,205.97z M220.21,227.72l-0.07,4.69h17.93l0.07-4.69H220.21z   M220.08,236.86l-0.07,4.69h17.93l0.07-4.69H220.08z M219.94,246.01l-0.07,4.69h17.93l0.07-4.69H219.94z M178.91,156.9l0.02-1.6  c0.03-1.88-1.48-3.4-3.36-3.4h-5.3l34.06-41.83c1.3-1.59,1.07-3.91-0.51-5.17c-0.67-0.54-1.48-0.8-2.29-0.8  c-1.09,0-2.17,0.47-2.91,1.39l-33.58,41.24l-28.36-22.86c-0.67-0.54-1.49-0.81-2.3-0.81c-1.08,0-2.16,0.47-2.91,1.38  c-1.3,1.59-1.07,3.9,0.5,5.18l27.66,22.29h-3.1c-1.89,0-3.44,1.52-3.47,3.4l-0.02,1.6h-51.21c-6.04,0-11.02,4.89-11.11,10.9  l-1.38,93.63c-0.09,6,4.75,10.9,10.79,10.9h142.11c6.04,0,11.02-4.89,11.11-10.9l1.38-93.63c0.09-6.01-4.75-10.9-10.79-10.9h-65.03  V156.9z M204.88,264.97H100.23c-1.96,0-3.53-1.59-3.5-3.54l1.38-93.63c0.03-1.96,1.65-3.54,3.6-3.54h104.64L204.88,264.97   M245.95,261.43c-0.03,1.95-1.65,3.54-3.61,3.54h-30.07l1.48-100.72h30.07c1.96,0,3.54,1.59,3.51,3.54L245.95,261.43"
   id="path19" />
<g
   id="g28">
	
		<linearGradient
   id="SVGID_3_"
   gradientUnits="userSpaceOnUse"
   x1="170"
   y1="266.91"
   x2="170"
   y2="5.16"
   gradientTransform="matrix(1 0 0 -1 0 342)">
		<stop
   offset="0"
   style="stop-color:#FFF21F"
   id="stop21" />
		<stop
   offset="1"
   style="stop-color:#FFD21B"
   id="stop23" />
	</linearGradient>
	<path
   class="st2"
   d="M170,336.84c-72.17,0-130.88-58.71-130.88-130.88S97.83,75.09,170,75.09s130.88,58.71,130.88,130.88   S242.17,336.84,170,336.84z M170,78.27c-70.41,0-127.7,57.28-127.7,127.7c0,70.41,57.28,127.7,127.7,127.7s127.7-57.28,127.7-127.7   S240.41,78.27,170,78.27z"
   id="path26" />
</g>
</svg>