<?xml version="1.0" encoding="UTF-8" standalone="no"?>
<!-- Generator: Adobe Illustrator 23.0.1, SVG Export Plug-In . SVG Version: 6.00 Build 0)  -->

<svg
   xmlns:dc="http://purl.org/dc/elements/1.1/"
   xmlns:cc="http://creativecommons.org/ns#"
   xmlns:rdf="http://www.w3.org/1999/02/22-rdf-syntax-ns#"
   xmlns:svg="http://www.w3.org/2000/svg"
   xmlns="http://www.w3.org/2000/svg"
   xmlns:sodipodi="http://sodipodi.sourceforge.net/DTD/sodipodi-0.dtd"
   xmlns:inkscape="http://www.inkscape.org/namespaces/inkscape"
   version="1.1"
   id="Layer_1"
   x="0px"
   y="0px"
   viewBox="0 0 30 30"
   style="enable-background:new 0 0 30 30;"
   xml:space="preserve"
   sodipodi:docname="social-linkedin.svg"
   inkscape:version="0.92.3 (2405546, 2018-03-11)"><metadata
   id="metadata17"><rdf:RDF><cc:Work
       rdf:about=""><dc:format>image/svg+xml</dc:format><dc:type
         rdf:resource="http://purl.org/dc/dcmitype/StillImage" /><dc:title></dc:title></cc:Work></rdf:RDF></metadata><defs
   id="defs15" /><sodipodi:namedview
   pagecolor="#ffffff"
   bordercolor="#666666"
   borderopacity="1"
   objecttolerance="10"
   gridtolerance="10"
   guidetolerance="10"
   inkscape:pageopacity="0"
   inkscape:pageshadow="2"
   inkscape:window-width="741"
   inkscape:window-height="480"
   id="namedview13"
   showgrid="false"
   inkscape:zoom="7.8666667"
   inkscape:cx="-0.82627119"
   inkscape:cy="15"
   inkscape:window-x="0"
   inkscape:window-y="0"
   inkscape:window-maximized="0"
   inkscape:current-layer="Layer_1" />
<style
   type="text/css"
   id="style2">
	.st0{fill:#444445;}
</style>
<g
   id="g10">
	<path
   class="st0"
   d="M20.27,11.14c-2.11,0-3.53,1.16-4.11,2.26H16.1v-1.91h-4.16v13.97h4.34v-6.91c0-1.82,0.34-3.59,2.6-3.59   c2.23,0,2.26,2.08,2.26,3.7v6.79h4.34v-7.66C25.47,14.03,24.66,11.14,20.27,11.14z"
   id="path4" />
	<rect
   x="4.87"
   y="11.49"
   class="st0"
   width="4.34"
   height="13.97"
   id="rect6" />
	<path
   class="st0"
   d="M7.04,4.55c-1.39,0-2.52,1.13-2.52,2.52s1.12,2.52,2.52,2.52c1.39,0,2.52-1.13,2.52-2.52   C9.56,5.67,8.43,4.55,7.04,4.55z"
   id="path8" />
</g>
</svg>