<?xml version="1.0" encoding="UTF-8" standalone="no"?>
<!-- Generator: Adobe Illustrator 23.0.1, SVG Export Plug-In . SVG Version: 6.00 Build 0)  -->

<svg
   xmlns:dc="http://purl.org/dc/elements/1.1/"
   xmlns:cc="http://creativecommons.org/ns#"
   xmlns:rdf="http://www.w3.org/1999/02/22-rdf-syntax-ns#"
   xmlns:svg="http://www.w3.org/2000/svg"
   xmlns="http://www.w3.org/2000/svg"
   xmlns:sodipodi="http://sodipodi.sourceforge.net/DTD/sodipodi-0.dtd"
   xmlns:inkscape="http://www.inkscape.org/namespaces/inkscape"
   version="1.1"
   id="Layer_1"
   x="0px"
   y="0px"
   viewBox="0 0 30 30"
   style="enable-background:new 0 0 30 30;"
   xml:space="preserve"
   sodipodi:docname="social-instagram.svg"
   inkscape:version="0.92.3 (2405546, 2018-03-11)"><metadata
   id="metadata27"><rdf:RDF><cc:Work
       rdf:about=""><dc:format>image/svg+xml</dc:format><dc:type
         rdf:resource="http://purl.org/dc/dcmitype/StillImage" /><dc:title></dc:title></cc:Work></rdf:RDF></metadata><defs
   id="defs25" /><sodipodi:namedview
   pagecolor="#ffffff"
   bordercolor="#666666"
   borderopacity="1"
   objecttolerance="10"
   gridtolerance="10"
   guidetolerance="10"
   inkscape:pageopacity="0"
   inkscape:pageshadow="2"
   inkscape:window-width="741"
   inkscape:window-height="480"
   id="namedview23"
   showgrid="false"
   inkscape:zoom="7.8666667"
   inkscape:cx="-0.82627119"
   inkscape:cy="15"
   inkscape:window-x="0"
   inkscape:window-y="0"
   inkscape:window-maximized="0"
   inkscape:current-layer="Layer_1" />
<style
   type="text/css"
   id="style2">
	.st0{fill:#404041;}
</style>
<g
   id="g20">
	<g
   id="g18">
		<g
   id="g16">
			<g
   id="g6">
				<path
   class="st0"
   d="M22.47,27.38H8.27c-2.79,0-5.06-2.27-5.06-5.06V8.11c0-2.79,2.27-5.06,5.06-5.06h14.2      c2.79,0,5.06,2.27,5.06,5.06v14.2C27.54,25.11,25.26,27.38,22.47,27.38z M8.27,5.07c-1.68,0-3.04,1.36-3.04,3.04v14.2      c0,1.68,1.36,3.04,3.04,3.04h14.2c1.68,0,3.04-1.36,3.04-3.04V8.11c0-1.68-1.36-3.04-3.04-3.04C22.47,5.07,8.27,5.07,8.27,5.07z      "
   id="path4" />
			</g>
			<g
   id="g10">
				<path
   class="st0"
   d="M15.58,21.8c-3.44,0-6.23-2.8-6.23-6.23c0-3.44,2.8-6.23,6.23-6.23s6.23,2.8,6.23,6.23      C21.82,19,19.02,21.8,15.58,21.8z M15.58,11.36c-2.32,0-4.21,1.89-4.21,4.21s1.89,4.21,4.21,4.21s4.21-1.89,4.21-4.21      C19.79,13.24,17.9,11.36,15.58,11.36z"
   id="path8" />
			</g>
			<g
   id="g14">
				<path
   class="st0"
   d="M23.67,8.23c0,0.79-0.64,1.43-1.43,1.43s-1.43-0.64-1.43-1.43s0.64-1.43,1.43-1.43      C23.03,6.8,23.67,7.44,23.67,8.23z"
   id="path12" />
			</g>
		</g>
	</g>
</g>
</svg>